<?xml version="1.0" standalone="no"?>
<!DOCTYPE svg PUBLIC "-//W3C//DTD SVG 20010904//EN"
 "http://www.w3.org/TR/2001/REC-SVG-20010904/DTD/svg10.dtd">
<svg version="1.0" xmlns="http://www.w3.org/2000/svg"
 width="404.000000pt" height="404.000000pt" viewBox="0 0 404.000000 404.000000"
 preserveAspectRatio="xMidYMid meet">
<metadata>
Created by potrace 1.11, written by Peter Selinger 2001-2013
</metadata>
<g transform="translate(0.000000,404.000000) scale(0.100000,-0.100000)"
fill="#000000" stroke="none">
<path d="M1988 3905 c-2 -2 -28 -6 -59 -9 -204 -24 -876 -291 -1077 -428 -24
-16 -69 -56 -101 -88 -55 -55 -78 -76 -221 -200 -35 -30 -71 -62 -79 -70 -36
-33 -93 -110 -129 -176 -22 -38 -68 -117 -104 -176 -83 -134 -150 -310 -173
-448 -3 -19 -8 -42 -10 -50 -2 -8 -6 -33 -9 -55 -3 -22 -8 -58 -11 -80 -7 -53
-8 -288 -1 -342 4 -24 8 -61 11 -84 5 -42 11 -76 20 -119 3 -14 12 -66 19
-115 39 -250 116 -414 282 -596 38 -41 94 -104 124 -139 189 -219 340 -345
525 -438 58 -29 193 -67 270 -77 20 -3 101 -22 179 -42 149 -39 270 -49 409
-32 113 14 250 21 427 24 96 2 186 6 200 9 14 3 50 11 80 17 30 6 88 19 128
30 75 21 95 25 147 34 17 3 53 10 80 15 28 6 61 12 74 15 54 10 140 39 198 66
136 63 394 285 501 429 207 280 202 272 237 397 13 49 36 125 49 171 14 45 28
104 32 130 3 26 8 56 10 67 24 122 23 539 -2 667 -3 15 -7 65 -9 110 -2 46 -6
103 -9 128 -3 25 -8 71 -11 103 -11 130 -68 300 -157 467 -59 113 -111 185
-187 260 -77 77 -136 115 -262 170 -59 26 -136 65 -171 86 -160 99 -257 144
-392 185 -56 17 -159 48 -231 70 -232 70 -289 84 -405 94 -19 2 -57 6 -85 10
-65 10 -103 13 -107 10z"/>
</g>
</svg>
